<svg xmlns="http://www.w3.org/2000/svg" xmlns:xlink="http://www.w3.org/1999/xlink" width="40" height="32" viewBox="0 0 40 32">
    <defs>
        <path id="a" d="M0 0h1440v920H0z"/>
        <rect id="c" width="1257" height="420" rx="10"/>
        <filter id="b" width="108.9%" height="126.7%" x="-4.5%" y="-11%" filterUnits="objectBoundingBox">
            <feOffset dy="10" in="SourceAlpha" result="shadowOffsetOuter1"/>
            <feGaussianBlur in="shadowOffsetOuter1" result="shadowBlurOuter1" stdDeviation="17"/>
            <feColorMatrix in="shadowBlurOuter1" values="0 0 0 0 0.823554422 0 0 0 0 0.823554422 0 0 0 0 0.823554422 0 0 0 0.5 0"/>
        </filter>
    </defs>
    <g fill="none" fill-rule="evenodd">
        <use fill="#313A5A" transform="translate(-587 -896)" xlink:href="#a"/>
        <g transform="translate(-495 -86)">
            <use fill="#000" filter="url(#b)" xlink:href="#c"/>
            <use fill="#FFF" xlink:href="#c"/>
            <rect width="72" height="72" x="479" y="66" fill="#1FDB84" opacity=".1" rx="6"/>
            <path fill="#1FDB84" fill-rule="nonzero" d="M532.6 86.8h-35.2a2.403 2.403 0 0 0-2.4 2.4v25.6a2.403 2.403 0 0 0 2.4 2.4h4l4.08-5.44a2.4 2.4 0 0 1 1.92-.96h15.2a2.4 2.4 0 0 1 1.92.96l4.08 5.44h4a2.403 2.403 0 0 0 2.4-2.4V89.2a2.403 2.403 0 0 0-2.4-2.4zm-30.4 20.8H499a.8.8 0 1 1 0-1.6h3.2a.8.8 0 1 1 0 1.6zm0-6.4H499a.8.8 0 1 1 0-1.6h3.2a.8.8 0 1 1 0 1.6zm0-6.4H499a.8.8 0 1 1 0-1.6h3.2a.8.8 0 1 1 0 1.6zm21.6 11.2a1.6 1.6 0 0 1-1.6 1.6h-14.4a1.6 1.6 0 0 1-1.6-1.6V94.8a1.6 1.6 0 0 1 1.6-1.6h14.4a1.6 1.6 0 0 1 1.6 1.6V106zm7.2 1.6h-3.2a.8.8 0 1 1 0-1.6h3.2a.8.8 0 1 1 0 1.6zm0-6.4h-3.2a.8.8 0 1 1 0-1.6h3.2a.8.8 0 1 1 0 1.6zm0-6.4h-3.2a.8.8 0 1 1 0-1.6h3.2a.8.8 0 1 1 0 1.6zm-7.76 17.92l2.16 2.88h-20.8l2.16-2.88a.803.803 0 0 1 .64-.32h15.2c.252 0 .489.119.64.32z"/>
        </g>
    </g>
</svg>
